<svg id="svg" version="1.1" xmlns="http://www.w3.org/2000/svg" xmlns:xlink="http://www.w3.org/1999/xlink" width="400" height="400" viewBox="0, 0, 400,400"><g id="svgg"><path id="path0" d="M191.354 0.214 C 157.685 1.635,124.499 11.722,95.944 29.213 L 92.779 31.152 101.782 31.250 L 110.784 31.348 102.374 37.458 C 97.562 40.953,93.999 43.670,94.047 43.806 C 94.558 45.247,100.378 63.359,100.342 63.394 C 100.300 63.436,96.861 60.957,85.426 52.646 L 83.450 51.210 75.002 57.343 C 66.916 63.213,66.273 63.665,66.469 63.330 C 66.593 63.120,71.875 46.761,71.875 46.589 C 71.875 46.101,62.735 54.497,57.611 59.693 C 49.117 68.304,41.919 76.984,35.277 86.621 L 33.393 89.355 36.263 89.453 L 39.134 89.551 33.742 93.457 L 28.350 97.363 26.984 99.707 C 24.934 103.227,23.633 105.636,23.634 105.909 C 23.634 106.043,24.764 109.624,26.143 113.867 C 27.523 118.110,28.629 121.611,28.601 121.646 C 28.573 121.681,26.423 120.160,23.823 118.266 C 21.224 116.372,19.070 114.849,19.038 114.882 C 18.724 115.200,14.925 124.064,13.383 128.074 L 12.539 130.269 13.382 132.859 C 13.845 134.284,15.116 138.196,16.207 141.553 L 18.189 147.656 28.669 147.656 C 38.893 147.656,39.140 147.665,38.764 148.019 C 38.552 148.219,34.819 150.956,30.469 154.102 C 26.118 157.248,22.485 159.887,22.396 159.966 C 22.264 160.084,28.306 179.173,28.662 179.762 C 28.917 180.184,27.831 179.431,20.012 173.761 C 14.244 169.578,11.633 167.792,11.468 167.917 C 11.337 168.017,9.121 169.621,6.543 171.483 C 3.965 173.344,1.793 174.920,1.716 174.985 C 1.211 175.412,0.002 191.835,0.000 198.291 L 0.000 200.000 100.000 200.000 L 200.000 200.000 200.000 100.000 L 200.000 0.000 197.510 0.030 C 196.140 0.046,193.370 0.129,191.354 0.214 M158.473 21.306 L 161.670 31.152 172.090 31.250 L 182.510 31.348 174.170 37.402 C 169.583 40.732,165.827 43.561,165.825 43.688 C 165.822 43.815,167.227 48.252,168.946 53.549 C 170.665 58.845,172.050 63.232,172.022 63.297 C 171.995 63.362,168.198 60.668,163.584 57.310 L 155.195 51.204 154.404 51.772 C 153.969 52.084,150.186 54.836,145.996 57.887 C 141.807 60.938,138.348 63.405,138.309 63.370 C 138.271 63.334,139.660 58.939,141.396 53.604 C 143.131 48.268,144.525 43.786,144.493 43.644 C 144.460 43.501,140.703 40.676,136.143 37.366 L 127.853 31.348 138.271 31.250 L 148.689 31.152 151.104 23.730 C 152.432 19.648,153.878 15.181,154.316 13.804 C 154.755 12.426,155.150 11.335,155.194 11.379 C 155.239 11.424,156.714 15.891,158.473 21.306 M86.830 79.832 L 89.941 89.450 100.391 89.500 L 110.840 89.551 102.539 95.582 C 97.974 98.899,94.177 101.667,94.102 101.734 C 94.028 101.801,95.409 106.290,97.172 111.709 C 98.935 117.128,100.351 121.589,100.318 121.622 C 100.285 121.655,96.500 118.951,91.906 115.613 C 87.312 112.275,83.449 109.584,83.322 109.633 C 83.195 109.681,79.376 112.422,74.836 115.723 C 70.296 119.024,66.557 121.692,66.527 121.653 C 66.497 121.614,67.906 117.188,69.659 111.816 C 71.412 106.445,72.847 101.989,72.849 101.914 C 72.850 101.838,69.069 99.026,64.445 95.664 L 56.039 89.551 66.486 89.500 L 76.932 89.450 77.902 86.473 C 78.436 84.836,79.857 80.464,81.060 76.758 C 82.264 73.052,83.294 69.942,83.350 69.848 C 83.511 69.578,83.548 69.684,86.830 79.832 M158.489 79.632 L 161.653 89.355 172.132 89.453 L 182.612 89.551 174.298 95.581 C 169.726 98.897,165.942 101.722,165.890 101.858 C 165.838 101.994,167.215 106.473,168.949 111.811 C 170.684 117.149,172.073 121.547,172.036 121.584 C 171.999 121.621,168.278 118.969,163.767 115.690 C 159.257 112.412,155.459 109.685,155.329 109.631 C 155.198 109.578,151.331 112.266,146.735 115.606 C 142.139 118.945,138.359 121.612,138.334 121.532 C 138.309 121.452,139.723 116.981,141.474 111.596 L 144.659 101.806 136.212 95.678 L 127.764 89.551 138.231 89.453 L 148.698 89.355 149.435 87.109 C 149.840 85.874,151.282 81.450,152.640 77.277 C 153.997 73.105,155.157 69.740,155.217 69.800 C 155.277 69.860,156.749 74.285,158.489 79.632 M87.214 139.307 L 89.919 147.656 100.331 147.656 C 106.057 147.656,110.738 147.722,110.733 147.803 C 110.729 147.883,107.103 150.571,102.677 153.774 C 98.250 156.978,94.480 159.709,94.297 159.843 C 93.994 160.066,94.235 160.914,97.167 169.931 C 98.928 175.345,100.335 179.808,100.294 179.849 C 100.254 179.889,96.546 177.250,92.054 173.984 C 87.562 170.717,83.777 167.979,83.644 167.899 C 83.490 167.806,80.337 169.981,75.052 173.825 C 70.461 177.164,66.678 179.818,66.645 179.721 C 66.613 179.624,68.009 175.168,69.748 169.820 C 72.786 160.473,72.894 160.084,72.538 159.819 C 72.335 159.667,68.522 156.890,64.067 153.648 L 55.966 147.754 66.452 147.703 L 76.938 147.653 79.497 139.793 C 80.904 135.470,82.326 131.099,82.656 130.078 C 82.986 129.058,83.303 128.140,83.362 128.038 C 83.486 127.824,83.636 128.263,87.214 139.307 M158.471 137.826 L 161.634 147.559 172.163 147.656 L 182.691 147.754 174.256 153.875 C 169.616 157.242,165.820 160.096,165.820 160.217 C 165.820 160.339,167.232 164.779,168.957 170.084 C 170.681 175.389,172.057 179.766,172.013 179.810 C 171.969 179.854,168.174 177.161,163.579 173.825 C 155.741 168.134,155.200 167.777,154.810 168.033 C 154.582 168.183,150.802 170.914,146.412 174.103 C 142.022 177.292,138.391 179.863,138.345 179.816 C 138.298 179.769,139.671 175.395,141.396 170.096 C 143.120 164.796,144.531 160.354,144.531 160.224 C 144.531 160.094,140.798 157.279,136.234 153.968 C 131.671 150.658,127.936 147.884,127.934 147.804 C 127.931 147.725,132.603 147.637,138.314 147.609 L 148.698 147.559 149.826 144.141 C 150.447 142.261,151.891 137.838,153.034 134.312 C 154.178 130.786,155.158 127.944,155.211 127.997 C 155.264 128.050,156.731 132.473,158.471 137.826 " stroke="none" fill="#0454b4" fill-rule="evenodd"></path><path id="path1" d="M200.000 69.629 L 200.000 95.703 285.254 95.703 C 332.144 95.703,370.508 95.645,370.508 95.573 C 370.508 95.162,364.783 86.538,361.713 82.324 C 351.706 68.588,339.667 55.880,326.228 44.869 L 324.623 43.555 262.311 43.555 L 200.000 43.555 200.000 69.629 M200.000 173.926 L 200.000 200.000 300.000 200.000 L 400.000 200.000 399.999 197.314 C 399.992 183.204,397.355 163.687,393.534 149.463 L 393.101 147.852 296.551 147.852 L 200.000 147.852 200.000 173.926 M7.031 252.433 C 7.031 252.989,9.181 260.128,10.651 264.453 C 14.988 277.212,21.082 290.474,27.771 301.709 L 29.311 304.297 199.993 304.297 L 370.675 304.297 371.409 303.076 C 371.814 302.405,372.193 301.811,372.254 301.758 C 372.314 301.704,372.526 301.352,372.725 300.976 C 372.924 300.601,373.725 299.150,374.506 297.754 C 375.287 296.357,376.613 293.896,377.453 292.285 C 378.292 290.674,379.073 289.291,379.187 289.212 C 379.301 289.133,379.328 289.067,379.246 289.065 C 379.164 289.064,379.418 288.425,379.811 287.646 C 384.325 278.701,392.969 255.568,392.969 252.433 C 392.969 252.184,368.766 252.148,200.000 252.148 C 31.234 252.148,7.031 252.184,7.031 252.433 M75.986 356.891 C 97.489 373.822,121.470 385.936,147.559 393.046 C 159.750 396.369,172.882 398.581,186.133 399.544 C 190.786 399.883,207.214 400.048,210.352 399.788 C 211.372 399.704,214.097 399.488,216.406 399.308 C 218.716 399.129,220.913 398.956,221.289 398.925 C 221.931 398.872,226.205 398.314,229.492 397.855 C 230.678 397.689,234.443 397.062,238.184 396.407 C 252.511 393.897,273.885 386.721,287.710 379.778 C 288.664 379.298,289.572 378.906,289.726 378.906 C 289.880 378.906,290.036 378.829,290.072 378.735 C 290.107 378.640,290.884 378.189,291.797 377.732 C 298.399 374.426,308.488 368.260,315.871 363.018 C 318.170 361.386,323.590 357.306,324.111 356.815 C 324.220 356.713,273.047 356.643,199.990 356.647 C 102.240 356.652,75.748 356.704,75.986 356.891 " stroke="none" fill="#dc0424" fill-rule="evenodd"></path><path id="path2" d="M200.000 21.650 L 200.000 43.359 262.256 43.352 L 324.512 43.345 323.926 42.858 C 322.574 41.735,317.252 37.794,314.258 35.699 C 282.548 13.511,244.063 0.865,205.811 0.062 L 200.000 -0.060 200.000 21.650 M151.960 21.372 L 148.755 31.247 138.369 31.297 L 127.983 31.348 136.349 37.402 C 140.950 40.732,144.717 43.501,144.720 43.555 C 144.723 43.608,143.290 48.066,141.534 53.460 C 139.778 58.853,138.438 63.211,138.556 63.143 C 138.673 63.074,142.438 60.353,146.922 57.095 C 151.406 53.837,155.121 51.172,155.178 51.172 C 155.235 51.172,158.949 53.835,163.432 57.089 C 167.914 60.344,171.679 63.066,171.797 63.137 C 171.915 63.209,170.566 58.821,168.798 53.387 C 166.862 47.433,165.662 43.457,165.780 43.383 C 165.887 43.316,169.665 40.581,174.175 37.305 L 182.376 31.348 171.987 31.297 L 161.598 31.247 158.893 22.899 C 157.405 18.307,155.958 13.864,155.676 13.024 L 155.164 11.498 151.960 21.372 M89.155 33.360 C 84.068 36.756,78.118 41.141,73.947 44.569 L 72.210 45.996 69.700 53.711 C 66.492 63.574,66.556 63.363,66.850 63.139 C 66.982 63.039,70.765 60.295,75.256 57.040 L 83.423 51.124 84.436 51.832 C 84.993 52.221,88.745 54.943,92.773 57.881 C 96.802 60.819,100.126 63.200,100.160 63.173 C 100.194 63.146,98.810 58.778,97.084 53.465 C 95.358 48.153,93.947 43.728,93.950 43.632 C 93.952 43.536,97.528 40.864,101.896 37.695 C 106.264 34.526,110.019 31.783,110.241 31.598 C 110.623 31.280,110.166 31.263,101.465 31.267 L 92.285 31.270 89.155 33.360 M341.016 58.069 C 341.016 58.103,341.301 58.388,341.650 58.704 L 342.285 59.277 341.712 58.643 C 341.177 58.051,341.016 57.918,341.016 58.069 M153.352 75.354 C 152.354 78.436,150.911 82.868,150.146 85.203 L 148.754 89.450 138.329 89.500 L 127.903 89.551 136.226 95.590 C 140.804 98.911,144.589 101.693,144.637 101.771 C 144.685 101.849,143.317 106.245,141.596 111.539 C 139.876 116.834,138.492 121.227,138.521 121.302 C 138.550 121.376,142.309 118.723,146.875 115.406 C 151.440 112.089,155.179 109.375,155.183 109.375 C 155.188 109.375,158.923 112.086,163.484 115.399 C 168.045 118.712,171.802 121.362,171.832 121.289 C 171.862 121.216,170.534 116.989,168.879 111.896 C 167.225 106.803,165.813 102.446,165.740 102.212 C 165.622 101.833,166.510 101.132,174.036 95.669 L 182.465 89.551 172.028 89.500 L 161.591 89.450 158.405 79.637 C 156.653 74.240,155.208 69.808,155.194 69.788 C 155.179 69.767,154.351 72.272,153.352 75.354 M83.259 70.313 C 83.157 70.581,81.718 74.996,80.062 80.123 L 77.051 89.446 66.617 89.498 L 56.183 89.551 64.594 95.664 L 73.005 101.776 72.343 103.867 C 71.979 105.016,70.550 109.429,69.167 113.672 C 67.785 117.915,66.675 121.413,66.702 121.445 C 66.730 121.478,70.505 118.772,75.092 115.434 L 83.433 109.363 85.320 110.724 C 86.358 111.473,90.106 114.194,93.649 116.772 C 97.192 119.350,100.117 121.432,100.150 121.399 C 100.183 121.366,98.801 117.004,97.078 111.705 C 95.355 106.407,93.951 101.979,93.958 101.866 C 93.965 101.753,97.619 99.023,102.078 95.801 C 106.537 92.578,110.277 89.832,110.390 89.697 C 110.553 89.502,108.500 89.453,100.228 89.453 L 89.862 89.453 87.399 81.885 C 83.270 69.192,83.471 69.755,83.259 70.313 M32.593 90.283 C 32.312 90.740,31.229 92.461,30.186 94.108 C 29.142 95.756,28.318 97.132,28.353 97.168 C 28.419 97.232,38.325 90.073,38.728 89.670 C 38.887 89.511,38.167 89.453,36.024 89.453 L 33.103 89.453 32.593 90.283 M200.000 121.680 L 200.000 147.656 296.582 147.656 C 349.702 147.656,393.164 147.624,393.164 147.586 C 393.164 147.200,391.227 140.837,389.856 136.719 C 385.415 123.377,380.170 111.742,373.106 99.561 L 370.869 95.703 285.435 95.703 L 200.000 95.703 200.000 121.680 M22.390 107.683 C 21.867 108.667,20.884 110.634,20.204 112.053 L 18.969 114.634 23.680 118.056 C 26.271 119.939,28.415 121.455,28.444 121.426 C 28.501 121.369,23.519 106.071,23.407 105.960 C 23.370 105.923,22.912 106.698,22.390 107.683 M80.871 135.938 C 79.455 140.288,78.009 144.727,77.657 145.801 L 77.018 147.754 66.690 147.852 L 56.362 147.949 64.558 153.886 C 69.066 157.151,72.815 159.875,72.890 159.940 C 72.965 160.005,71.581 164.497,69.815 169.922 C 68.049 175.347,66.604 179.803,66.603 179.825 C 66.602 179.847,70.391 177.110,75.023 173.743 L 83.445 167.621 87.767 170.760 C 90.145 172.486,93.883 175.202,96.074 176.796 C 98.266 178.390,100.089 179.664,100.125 179.627 C 100.162 179.590,98.787 175.237,97.069 169.954 C 95.351 164.670,93.945 160.266,93.945 160.167 C 93.945 160.068,97.679 157.279,102.243 153.968 L 110.541 147.949 100.219 147.899 L 89.896 147.848 88.323 143.016 C 87.458 140.358,86.007 135.898,85.099 133.105 L 83.447 128.027 80.871 135.938 M153.762 132.369 C 152.996 134.708,151.551 139.147,150.550 142.235 L 148.732 147.848 138.419 147.899 L 128.106 147.949 136.075 153.746 C 140.457 156.934,144.206 159.664,144.404 159.812 C 144.773 160.087,144.054 162.476,138.965 177.898 C 138.598 179.008,138.404 179.832,138.534 179.729 C 138.664 179.626,142.197 177.056,146.387 174.017 C 150.576 170.979,154.268 168.294,154.590 168.052 L 155.176 167.611 163.086 173.371 C 167.437 176.539,171.232 179.302,171.521 179.512 L 172.046 179.892 171.481 178.178 C 166.453 162.931,165.593 160.076,165.952 159.813 C 166.148 159.669,169.899 156.941,174.287 153.750 L 182.266 147.949 171.943 147.898 L 161.621 147.847 158.512 138.230 C 156.803 132.941,155.348 128.502,155.280 128.365 C 155.212 128.229,154.529 130.030,153.762 132.369 M12.129 130.865 C 7.823 142.804,4.575 155.119,2.653 166.797 C 1.898 171.380,1.389 175.000,1.498 175.000 C 1.537 175.000,3.801 173.374,6.530 171.387 C 9.259 169.399,11.586 167.773,11.700 167.773 C 11.815 167.773,15.609 170.461,20.132 173.746 C 24.654 177.031,28.380 179.689,28.412 179.654 C 28.443 179.619,27.041 175.196,25.295 169.826 L 22.120 160.063 22.828 159.547 C 23.217 159.264,26.995 156.517,31.223 153.443 L 38.910 147.855 28.519 147.804 L 18.127 147.754 15.353 139.258 C 13.828 134.585,12.533 130.632,12.476 130.474 C 12.410 130.287,12.287 130.425,12.129 130.865 M0.000 203.787 C 0.000 216.926,2.057 232.981,5.614 247.607 L 6.718 252.148 200.000 252.148 L 393.282 252.148 394.386 247.607 C 397.937 233.005,400.000 216.868,400.000 203.689 L 400.000 200.000 200.000 200.000 L 0.000 200.000 0.000 203.787 M30.303 306.104 C 41.526 324.028,55.527 340.037,72.168 353.976 L 75.098 356.430 200.000 356.433 L 324.902 356.435 327.832 353.979 C 344.591 339.927,358.338 324.197,369.756 306.006 L 370.706 304.492 200.000 304.492 L 29.294 304.492 30.303 306.104 " stroke="none" fill="#f3f3f3" fill-rule="evenodd"></path><path id="path3" d="M192.236 0.144 C 192.747 0.184,193.582 0.184,194.092 0.144 C 194.602 0.103,194.185 0.070,193.164 0.070 C 192.144 0.070,191.726 0.103,192.236 0.144 M188.041 0.337 C 188.392 0.380,188.919 0.379,189.212 0.335 C 189.506 0.290,189.219 0.255,188.574 0.256 C 187.930 0.257,187.690 0.293,188.041 0.337 M185.012 0.531 C 185.309 0.576,185.749 0.574,185.989 0.528 C 186.229 0.482,185.986 0.445,185.449 0.446 C 184.912 0.448,184.716 0.486,185.012 0.531 M182.669 0.726 C 182.966 0.771,183.405 0.770,183.645 0.723 C 183.885 0.677,183.643 0.640,183.105 0.642 C 182.568 0.643,182.372 0.681,182.669 0.726 M180.422 0.919 C 180.665 0.966,181.017 0.964,181.203 0.915 C 181.390 0.867,181.191 0.828,180.762 0.831 C 180.332 0.833,180.179 0.873,180.422 0.919 M178.564 1.111 C 178.752 1.160,179.060 1.160,179.248 1.111 C 179.436 1.062,179.282 1.022,178.906 1.022 C 178.530 1.022,178.376 1.062,178.564 1.111 M175.049 1.502 C 175.237 1.551,175.544 1.551,175.732 1.502 C 175.920 1.453,175.767 1.413,175.391 1.413 C 175.015 1.413,174.861 1.453,175.049 1.502 M142.090 8.398 C 141.844 8.504,141.808 8.566,141.992 8.566 C 142.153 8.566,142.461 8.491,142.676 8.398 C 142.922 8.293,142.958 8.231,142.773 8.231 C 142.612 8.231,142.305 8.306,142.090 8.398 M140.137 8.984 C 139.891 9.090,139.854 9.152,140.039 9.152 C 140.200 9.152,140.508 9.077,140.723 8.984 C 140.969 8.879,141.005 8.817,140.820 8.817 C 140.659 8.817,140.352 8.892,140.137 8.984 M130.762 12.214 C 130.273 12.449,130.257 12.476,130.664 12.377 C 131.217 12.242,131.840 11.924,131.543 11.929 C 131.436 11.930,131.084 12.059,130.762 12.214 M123.242 15.137 C 122.974 15.290,122.842 15.416,122.949 15.416 C 123.057 15.416,123.364 15.290,123.633 15.137 C 123.901 14.983,124.033 14.858,123.926 14.858 C 123.818 14.858,123.511 14.983,123.242 15.137 M119.141 16.895 C 118.872 17.048,118.740 17.174,118.848 17.174 C 118.955 17.174,119.263 17.048,119.531 16.895 C 119.800 16.741,119.932 16.615,119.824 16.615 C 119.717 16.615,119.409 16.741,119.141 16.895 M114.648 18.945 C 114.272 19.151,114.053 19.320,114.160 19.320 C 114.268 19.320,114.663 19.151,115.039 18.945 C 115.415 18.739,115.635 18.571,115.527 18.571 C 115.420 18.571,115.024 18.739,114.648 18.945 M110.303 21.010 C 109.545 21.421,109.631 21.563,110.400 21.172 C 111.137 20.797,111.267 20.700,111.019 20.711 C 110.920 20.715,110.598 20.850,110.303 21.010 M106.592 22.962 C 106.082 23.228,105.664 23.489,105.664 23.542 C 105.664 23.596,106.104 23.417,106.641 23.145 C 107.178 22.872,107.617 22.607,107.617 22.555 C 107.617 22.426,107.635 22.419,106.592 22.962 M103.857 24.427 C 103.455 24.640,103.125 24.858,103.125 24.911 C 103.125 24.964,103.477 24.829,103.906 24.609 C 104.336 24.390,104.688 24.169,104.688 24.117 C 104.688 23.989,104.686 23.990,103.857 24.427 M102.100 25.404 C 101.697 25.617,101.367 25.834,101.367 25.888 C 101.367 25.941,101.719 25.805,102.148 25.586 C 102.578 25.367,102.930 25.145,102.930 25.094 C 102.930 24.966,102.928 24.966,102.100 25.404 M97.363 28.151 C 96.826 28.483,96.299 28.846,96.191 28.956 C 95.975 29.179,97.321 28.413,98.064 27.891 C 98.843 27.343,98.408 27.505,97.363 28.151 M94.189 30.101 C 93.524 30.527,93.308 30.813,93.896 30.490 C 94.345 30.244,95.047 29.701,94.922 29.697 C 94.868 29.695,94.539 29.877,94.189 30.101 M69.406 48.348 C 67.995 49.576,66.193 51.204,65.402 51.966 C 64.612 52.729,65.195 52.267,66.699 50.940 C 70.912 47.223,71.809 46.484,71.945 46.619 C 72.014 46.688,72.070 46.598,72.070 46.419 C 72.070 45.994,72.320 45.813,69.406 48.348 M58.664 58.447 C 52.357 64.793,49.181 68.279,44.831 73.633 C 44.089 74.546,43.353 75.447,43.195 75.635 C 43.037 75.823,42.954 75.977,43.011 75.977 C 43.067 75.977,43.991 74.900,45.063 73.584 C 48.955 68.808,52.927 64.439,58.377 58.936 C 61.436 55.847,63.898 53.320,63.849 53.320 C 63.800 53.320,61.466 55.627,58.664 58.447 M41.318 78.076 C 39.555 80.374,38.499 81.845,38.900 81.445 C 39.345 81.003,42.987 76.172,42.876 76.172 C 42.823 76.172,42.122 77.029,41.318 78.076 M37.500 83.203 C 37.271 83.525,37.127 83.789,37.180 83.789 C 37.234 83.789,37.466 83.525,37.695 83.203 C 37.925 82.881,38.069 82.617,38.015 82.617 C 37.961 82.617,37.729 82.881,37.500 83.203 M36.523 84.570 C 36.294 84.893,36.150 85.156,36.204 85.156 C 36.258 85.156,36.489 84.893,36.719 84.570 C 36.948 84.248,37.092 83.984,37.038 83.984 C 36.985 83.984,36.753 84.248,36.523 84.570 M34.961 86.816 C 34.417 87.622,34.016 88.281,34.070 88.281 C 34.124 88.281,34.613 87.622,35.156 86.816 C 35.700 86.011,36.101 85.352,36.047 85.352 C 35.993 85.352,35.505 86.011,34.961 86.816 M27.757 98.049 C 27.516 98.478,27.360 98.828,27.410 98.828 C 27.542 98.828,28.349 97.425,28.265 97.341 C 28.226 97.302,27.997 97.621,27.757 98.049 M25.391 102.148 C 25.171 102.578,25.036 102.930,25.090 102.930 C 25.143 102.930,25.367 102.578,25.586 102.148 C 25.805 101.719,25.941 101.367,25.887 101.367 C 25.833 101.367,25.610 101.719,25.391 102.148 M24.316 104.102 C 24.044 104.639,23.865 105.078,23.919 105.078 C 23.973 105.078,24.240 104.639,24.512 104.102 C 24.784 103.564,24.963 103.125,24.909 103.125 C 24.855 103.125,24.589 103.564,24.316 104.102 M17.906 116.904 C 17.447 117.866,17.512 118.029,17.992 117.120 C 18.209 116.707,18.353 116.335,18.311 116.293 C 18.269 116.250,18.086 116.525,17.906 116.904 M15.657 121.981 C 15.329 122.699,15.392 122.852,15.746 122.200 C 15.911 121.895,16.010 121.609,15.965 121.564 C 15.920 121.519,15.782 121.707,15.657 121.981 M18.019 147.461 C 18.089 147.717,19.436 147.754,28.630 147.757 L 39.160 147.759 28.721 147.706 C 20.682 147.665,18.243 147.597,18.111 147.410 C 17.985 147.232,17.960 147.246,18.019 147.461 M76.953 147.427 C 76.953 147.595,74.254 147.666,66.474 147.703 C 57.124 147.748,56.033 147.785,56.355 148.047 C 56.562 148.215,56.653 148.236,56.569 148.096 C 56.452 147.902,58.525 147.852,66.676 147.852 C 76.445 147.852,77.548 147.795,77.070 147.318 C 77.006 147.253,76.953 147.302,76.953 147.427 M138.330 147.607 C 132.610 147.636,127.930 147.725,127.930 147.804 C 127.930 148.028,148.489 147.878,148.714 147.653 C 148.820 147.547,148.867 147.482,148.818 147.508 C 148.770 147.534,144.050 147.579,138.330 147.607 M161.651 147.705 C 161.701 147.786,166.356 147.852,171.996 147.852 C 180.147 147.852,182.220 147.902,182.103 148.096 C 182.019 148.236,182.110 148.215,182.317 148.047 C 182.641 147.784,182.302 147.749,178.985 147.706 C 168.913 147.574,161.570 147.573,161.651 147.705 M93.457 147.798 C 103.004 147.934,110.742 147.936,110.742 147.803 C 110.742 147.722,106.018 147.676,100.244 147.701 C 94.470 147.725,91.416 147.769,93.457 147.798 M1.217 177.148 C 1.217 177.524,1.257 177.678,1.307 177.490 C 1.356 177.302,1.356 176.995,1.307 176.807 C 1.257 176.619,1.217 176.772,1.217 177.148 M1.026 178.809 C 1.028 179.238,1.068 179.391,1.115 179.148 C 1.161 178.905,1.160 178.554,1.111 178.367 C 1.062 178.180,1.024 178.379,1.026 178.809 M0.827 180.859 C 0.827 181.235,0.867 181.389,0.916 181.201 C 0.965 181.013,0.965 180.706,0.916 180.518 C 0.867 180.330,0.827 180.483,0.827 180.859 M0.635 183.105 C 0.637 183.535,0.677 183.688,0.724 183.445 C 0.771 183.202,0.769 182.850,0.720 182.664 C 0.671 182.477,0.633 182.676,0.635 183.105 M0.446 185.449 C 0.448 185.986,0.486 186.183,0.531 185.886 C 0.576 185.589,0.574 185.150,0.528 184.909 C 0.482 184.669,0.445 184.912,0.446 185.449 M0.258 188.477 C 0.258 189.175,0.293 189.460,0.337 189.111 C 0.380 188.762,0.380 188.191,0.337 187.842 C 0.293 187.493,0.258 187.778,0.258 188.477 M0.070 192.969 C 0.070 193.989,0.103 194.407,0.144 193.896 C 0.184 193.386,0.184 192.551,0.144 192.041 C 0.103 191.531,0.070 191.948,0.070 192.969 " stroke="none" fill="#7fa5d4" fill-rule="evenodd"></path><path id="path4" d="M231.104 43.506 C 248.264 43.533,276.345 43.533,293.506 43.506 C 310.667 43.478,296.626 43.456,262.305 43.456 C 227.983 43.456,213.943 43.478,231.104 43.506 M327.930 46.155 C 327.930 46.188,328.215 46.474,328.564 46.790 L 329.199 47.363 328.626 46.729 C 328.091 46.137,327.930 46.004,327.930 46.155 M329.297 47.327 C 329.297 47.360,329.583 47.646,329.932 47.962 L 330.566 48.535 329.993 47.900 C 329.458 47.309,329.297 47.176,329.297 47.327 M330.664 48.499 C 330.664 48.532,330.950 48.818,331.299 49.133 L 331.934 49.707 331.360 49.072 C 330.825 48.481,330.664 48.348,330.664 48.499 M332.813 50.488 C 333.177 50.864,333.519 51.172,333.573 51.172 C 333.626 51.172,333.372 50.864,333.008 50.488 C 332.643 50.112,332.301 49.805,332.248 49.805 C 332.194 49.805,332.448 50.112,332.813 50.488 M334.863 52.344 C 335.392 52.881,335.869 53.320,335.923 53.320 C 335.977 53.320,335.588 52.881,335.059 52.344 C 334.530 51.807,334.053 51.367,333.999 51.367 C 333.945 51.367,334.334 51.807,334.863 52.344 M338.086 55.371 C 339.102 56.392,339.978 57.227,340.031 57.227 C 340.085 57.227,339.298 56.392,338.281 55.371 C 337.265 54.351,336.390 53.516,336.336 53.516 C 336.282 53.516,337.070 54.351,338.086 55.371 M343.750 60.991 C 343.750 61.021,344.431 61.702,345.264 62.505 L 346.777 63.965 345.317 62.451 C 343.961 61.045,343.750 60.848,343.750 60.991 M347.648 65.088 C 348.457 65.950,348.633 66.105,348.633 65.959 C 348.633 65.927,348.215 65.510,347.705 65.031 L 346.777 64.160 347.648 65.088 M349.406 67.041 C 350.215 67.903,350.391 68.058,350.391 67.912 C 350.391 67.880,349.973 67.463,349.463 66.984 L 348.535 66.113 349.406 67.041 M350.391 68.225 C 350.391 68.259,350.676 68.544,351.025 68.860 L 351.660 69.434 351.087 68.799 C 350.552 68.207,350.391 68.074,350.391 68.225 M351.563 69.592 C 351.563 69.626,351.848 69.912,352.197 70.227 L 352.832 70.801 352.258 70.166 C 351.724 69.574,351.563 69.441,351.563 69.592 M362.891 83.984 C 363.120 84.307,363.352 84.570,363.406 84.570 C 363.459 84.570,363.315 84.307,363.086 83.984 C 362.856 83.662,362.625 83.398,362.571 83.398 C 362.517 83.398,362.661 83.662,362.891 83.984 M363.867 85.352 C 364.097 85.674,364.328 85.938,364.382 85.938 C 364.436 85.938,364.292 85.674,364.063 85.352 C 363.833 85.029,363.601 84.766,363.548 84.766 C 363.494 84.766,363.638 85.029,363.867 85.352 M366.106 88.623 C 366.407 89.080,366.691 89.453,366.736 89.453 C 366.877 89.453,366.129 88.264,365.836 88.022 C 365.683 87.896,365.805 88.167,366.106 88.623 M248.177 147.803 C 274.729 147.830,318.235 147.830,344.857 147.803 C 371.480 147.775,349.756 147.753,296.582 147.753 C 243.408 147.753,221.626 147.775,248.177 147.803 M399.663 188.281 C 399.663 188.765,399.701 188.962,399.747 188.721 C 399.794 188.479,399.794 188.083,399.747 187.842 C 399.701 187.600,399.663 187.798,399.663 188.281 M399.863 192.188 C 399.863 192.778,399.900 193.020,399.945 192.725 C 399.989 192.429,399.989 191.946,399.945 191.650 C 399.900 191.355,399.863 191.597,399.863 192.188 M376.563 293.945 C 376.343 294.375,376.208 294.727,376.262 294.727 C 376.315 294.727,376.539 294.375,376.758 293.945 C 376.977 293.516,377.112 293.164,377.059 293.164 C 377.005 293.164,376.782 293.516,376.563 293.945 M23.340 294.141 C 23.506 294.463,23.687 294.727,23.741 294.727 C 23.794 294.727,23.702 294.463,23.535 294.141 C 23.369 293.818,23.188 293.555,23.134 293.555 C 23.081 293.555,23.173 293.818,23.340 294.141 M375.293 296.289 C 375.126 296.611,375.034 296.875,375.088 296.875 C 375.141 296.875,375.322 296.611,375.488 296.289 C 375.655 295.967,375.747 295.703,375.694 295.703 C 375.640 295.703,375.460 295.967,375.293 296.289 M28.954 303.906 L 29.247 304.395 200.000 304.395 C 370.636 304.395,370.753 304.394,370.972 304.003 C 371.171 303.649,371.166 303.644,370.923 303.954 C 370.668 304.280,362.410 304.297,200.000 304.297 L 29.345 304.297 29.003 303.857 C 28.662 303.418,28.662 303.418,28.954 303.906 M75.391 356.519 C 75.391 356.560,75.539 356.713,75.721 356.861 C 75.946 357.043,76.005 357.051,75.905 356.885 C 75.788 356.690,100.665 356.641,200.030 356.641 L 324.302 356.641 323.625 357.244 L 322.949 357.848 323.779 357.228 C 324.236 356.887,324.609 356.571,324.609 356.527 C 324.609 356.482,268.535 356.445,200.000 356.445 C 131.465 356.445,75.391 356.478,75.391 356.519 M321.973 358.517 L 321.191 359.217 322.021 358.596 C 322.736 358.061,322.994 357.804,322.803 357.815 C 322.776 357.817,322.402 358.133,321.973 358.517 M83.398 362.571 C 83.398 362.625,83.662 362.856,83.984 363.086 C 84.307 363.315,84.570 363.459,84.570 363.406 C 84.570 363.352,84.307 363.120,83.984 362.891 C 83.662 362.661,83.398 362.517,83.398 362.571 M314.551 363.982 L 313.965 364.485 314.600 364.065 C 314.949 363.834,315.234 363.607,315.234 363.561 C 315.234 363.415,315.152 363.466,314.551 363.982 M311.368 366.099 C 310.461 366.741,310.333 366.924,311.099 366.485 C 311.456 366.281,311.841 366.003,311.953 365.869 C 312.242 365.524,312.106 365.577,311.368 366.099 M92.285 368.656 C 92.500 368.831,92.852 369.060,93.066 369.166 L 93.457 369.357 93.066 369.039 C 92.852 368.865,92.500 368.635,92.285 368.530 L 91.895 368.338 92.285 368.656 M103.125 375.090 C 103.125 375.143,103.477 375.367,103.906 375.586 C 104.336 375.805,104.688 375.941,104.688 375.887 C 104.688 375.833,104.336 375.610,103.906 375.391 C 103.477 375.171,103.125 375.036,103.125 375.090 M296.240 375.307 C 295.510 375.703,295.555 375.868,296.289 375.488 C 296.611 375.322,296.875 375.144,296.875 375.093 C 296.875 374.967,296.854 374.974,296.240 375.307 M105.664 376.457 C 105.664 376.511,106.016 376.734,106.445 376.953 C 106.875 377.172,107.227 377.308,107.227 377.254 C 107.227 377.200,106.875 376.977,106.445 376.758 C 106.016 376.539,105.664 376.403,105.664 376.457 M114.844 381.152 C 115.112 381.306,115.420 381.431,115.527 381.431 C 115.635 381.431,115.503 381.306,115.234 381.152 C 114.966 380.999,114.658 380.873,114.551 380.873 C 114.443 380.873,114.575 380.999,114.844 381.152 M284.375 381.348 C 284.106 381.501,283.975 381.627,284.082 381.627 C 284.189 381.627,284.497 381.501,284.766 381.348 C 285.034 381.194,285.166 381.069,285.059 381.069 C 284.951 381.069,284.644 381.194,284.375 381.348 M216.846 399.353 C 217.034 399.403,217.341 399.403,217.529 399.353 C 217.717 399.304,217.563 399.264,217.188 399.264 C 216.812 399.264,216.658 399.304,216.846 399.353 M185.010 399.549 C 185.198 399.598,185.505 399.598,185.693 399.549 C 185.881 399.500,185.728 399.459,185.352 399.459 C 184.976 399.459,184.822 399.500,185.010 399.549 M214.307 399.549 C 214.495 399.598,214.802 399.598,214.990 399.549 C 215.178 399.500,215.024 399.459,214.648 399.459 C 214.272 399.459,214.119 399.500,214.307 399.549 M188.037 399.747 C 188.279 399.794,188.674 399.794,188.916 399.747 C 189.158 399.701,188.960 399.663,188.477 399.663 C 187.993 399.663,187.795 399.701,188.037 399.747 M211.477 399.748 C 211.720 399.794,212.071 399.792,212.258 399.744 C 212.445 399.695,212.246 399.656,211.816 399.659 C 211.387 399.661,211.234 399.701,211.477 399.748 M191.943 399.946 C 192.292 399.989,192.864 399.989,193.213 399.946 C 193.562 399.903,193.276 399.867,192.578 399.867 C 191.880 399.867,191.594 399.903,191.943 399.946 M206.787 399.946 C 207.136 399.989,207.708 399.989,208.057 399.946 C 208.406 399.903,208.120 399.867,207.422 399.867 C 206.724 399.867,206.438 399.903,206.787 399.946 " stroke="none" fill="#ecb4bc" fill-rule="evenodd"></path></g></svg>